<?xml version="1.0" encoding="UTF-8" standalone="no"?>
<!-- Created with Inkscape (http://www.inkscape.org/) -->

<svg
   width="305.37399"
   height="75"
   viewBox="0 0 80.796869 19.84375"
   version="1.1"
   id="svg5"
   xml:space="preserve"
   inkscape:version="1.2.2 (b0a8486541, 2022-12-01)"
   sodipodi:docname="rconsortium_dark.svg"
   xmlns:inkscape="http://www.inkscape.org/namespaces/inkscape"
   xmlns:sodipodi="http://sodipodi.sourceforge.net/DTD/sodipodi-0.dtd"
   xmlns="http://www.w3.org/2000/svg"
   xmlns:svg="http://www.w3.org/2000/svg"><sodipodi:namedview
     id="namedview7"
     pagecolor="#ffffff"
     bordercolor="#666666"
     borderopacity="1.0"
     inkscape:showpageshadow="2"
     inkscape:pageopacity="0.0"
     inkscape:pagecheckerboard="0"
     inkscape:deskcolor="#d1d1d1"
     inkscape:document-units="mm"
     showgrid="false"
     inkscape:zoom="2"
     inkscape:cx="64"
     inkscape:cy="-16.75"
     inkscape:window-width="3840"
     inkscape:window-height="2096"
     inkscape:window-x="0"
     inkscape:window-y="0"
     inkscape:window-maximized="1"
     inkscape:current-layer="layer1" /><defs
     id="defs2" /><g
     inkscape:label="Layer 1"
     inkscape:groupmode="layer"
     id="layer1"
     transform="translate(-37.570118,-129.78867)"><rect
       style="fill:#ffffff;fill-opacity:0;stroke-width:0.369352;stroke-dasharray:2.95481, 2.95481"
       id="rect300"
       width="80.796684"
       height="19.84375"
       x="37.570118"
       y="129.78867" /><g
       id="g532"
       transform="matrix(0.54117239,0,0,0.54117239,17.238208,81.246259)"
       style="fill:#ffffff"><path
         style="fill:#ffffff;fill-opacity:1;stroke-width:0.0846667"
         d="m 91.661901,113.49307 c -2.237572,-0.466 -3.803381,-1.94136 -4.318416,-4.06896 -0.198119,-0.81843 -0.142148,-2.36421 0.11433,-3.15747 0.518341,-1.60316 1.846925,-2.93339 3.428864,-3.43313 3.0987,-0.97888 6.308767,0.67998 7.135005,3.68713 0.108325,0.39426 0.150773,0.85049 0.149674,1.60867 -0.0014,0.93267 -0.02924,1.13866 -0.234897,1.73485 -0.321972,0.93341 -0.705585,1.52796 -1.426982,2.21164 -1.094364,1.03715 -2.253467,1.48041 -3.823955,1.46236 -0.469859,-0.005 -0.93049,-0.0257 -1.023623,-0.0451 z m 2.27666,-2.78068 c 0.971323,-0.45951 1.513972,-1.41179 1.520189,-2.66775 0.0047,-0.94106 -0.270611,-1.59475 -0.922389,-2.19044 -0.584772,-0.53445 -1.165222,-0.72361 -2.057011,-0.67033 -1.036516,0.0619 -1.827764,0.58092 -2.275428,1.49251 -0.214051,0.43588 -0.235354,0.56356 -0.235354,1.4106 0,0.85247 0.01971,0.96873 0.232825,1.373 0.399142,0.75717 1.026761,1.26133 1.819026,1.46119 0.529227,0.13351 1.393452,0.0394 1.918142,-0.20878 z m 20.921999,2.69532 c -0.73771,-0.15742 -1.48155,-0.50697 -2.15319,-1.01185 l -0.51664,-0.38836 0.49984,-0.56326 c 0.2749,-0.3098 0.65093,-0.7333 0.83561,-0.94112 l 0.33577,-0.37785 0.27663,0.23276 c 0.57761,0.48603 1.31778,0.73228 2.20365,0.73314 0.95667,9.2e-4 1.53738,-0.27237 1.65646,-0.77956 0.0431,-0.18366 0.004,-0.28131 -0.19399,-0.47885 -0.28477,-0.28478 -0.62056,-0.39339 -1.6318,-0.52782 -0.87816,-0.11674 -1.72429,-0.39376 -2.33705,-0.76513 -0.8234,-0.49903 -1.13429,-1.1829 -1.13429,-2.49511 0,-1.48098 0.51299,-2.27301 1.92658,-2.9746 l 0.80954,-0.40179 1.32011,0.003 c 1.14907,0.003 1.38593,0.0275 1.82811,0.19087 0.47457,0.17536 1.52682,0.82432 1.72629,1.06467 0.0662,0.0797 -0.11997,0.34471 -0.73367,1.0445 l -0.82232,0.93768 -0.29128,-0.25575 c -0.48551,-0.42628 -0.89986,-0.56842 -1.65702,-0.56842 -0.99862,0 -1.56634,0.30128 -1.56634,0.83124 0,0.37302 0.74289,0.69101 2.26877,0.97114 0.74326,0.13645 1.59882,0.49081 2.09052,0.86584 0.39467,0.30103 0.77855,1.10993 0.89646,1.88903 0.1619,1.0697 -0.0596,1.9707 -0.64438,2.62111 -0.42851,0.47661 -1.27182,0.95187 -2.04125,1.15038 -0.65686,0.16946 -2.14285,0.16641 -2.95112,-0.006 z m 11.32125,-0.0306 c -1.75368,-0.45946 -3.20808,-1.83673 -3.75347,-3.55442 -0.25334,-0.79789 -0.30802,-2.15553 -0.12137,-3.01389 0.23101,-1.06238 0.65148,-1.82733 1.44171,-2.62287 1.04017,-1.04714 2.07788,-1.5209 3.53736,-1.61495 2.56962,-0.16559 4.84764,1.3137 5.62598,3.65338 0.19762,0.59405 0.22602,0.81787 0.23094,1.82033 0.005,0.95633 -0.0251,1.2398 -0.18218,1.73567 -0.56265,1.77579 -2.00387,3.14112 -3.80082,3.6007 -0.86022,0.22001 -2.12978,0.21833 -2.97815,-0.004 z m 2.7382,-2.66405 c 1.24073,-0.60703 1.83851,-2.14953 1.39671,-3.60405 -0.16348,-0.53821 -0.25585,-0.68602 -0.71669,-1.14686 -0.65532,-0.65532 -1.15961,-0.83696 -2.16251,-0.7789 -1.07189,0.062 -1.80522,0.57236 -2.2814,1.58758 -0.19121,0.40766 -0.22022,0.58109 -0.22022,1.3162 0,0.9938 0.14551,1.39931 0.72948,2.03284 0.60706,0.65859 1.25498,0.9051 2.22504,0.84652 0.39967,-0.0241 0.72447,-0.10404 1.02959,-0.25333 z m -48.942108,2.61715 c -1.292046,-0.28567 -2.686663,-1.18812 -3.333892,-2.15735 -0.533823,-0.79941 -0.701761,-1.4348 -0.748472,-2.83183 -0.06728,-2.01217 0.238012,-2.93685 1.327787,-4.02169 1.271168,-1.26541 2.972142,-1.83371 4.807743,-1.60629 1.271935,0.15759 2.278479,0.59568 3.183446,1.38558 l 0.410613,0.35841 -1.085541,0.81246 -1.085541,0.81246 -0.294875,-0.25891 c -0.781772,-0.6864 -1.961692,-0.88924 -2.864654,-0.49246 -0.597503,0.26256 -1.300051,1.02366 -1.545224,1.67401 -0.260819,0.69185 -0.213789,1.7462 0.10715,2.40217 0.454158,0.92827 1.234366,1.49298 2.181331,1.57885 0.68583,0.0622 1.283802,-0.10679 1.920554,-0.54273 l 0.545927,-0.37375 1.050843,0.78351 1.050845,0.7835 -0.231687,0.24302 c -0.41535,0.43567 -1.381718,1.01412 -2.118396,1.26804 -0.908274,0.31307 -2.33052,0.39247 -3.277957,0.183 z m 20.362328,-5.10657 v -5.23972 l 0.35984,-0.05 c 0.19791,-0.0275 0.77893,-0.0904 1.29116,-0.13972 0.51224,-0.0494 1.01706,-0.1081 1.12184,-0.13056 0.17947,-0.0385 0.1905,-0.0138 0.1905,0.42645 0,0.257 0.0144,0.46728 0.0321,0.46728 0.0176,0 0.25576,-0.1349 0.52916,-0.29977 0.72634,-0.43802 1.28776,-0.58129 2.23276,-0.5698 1.72036,0.0209 2.88865,0.73162 3.63634,2.21205 0.38208,0.75653 0.42462,1.25851 0.42619,5.02869 l 10e-4,3.53483 h -1.524 -1.524 v -3.29135 c 0,-3.49869 -0.0175,-3.67404 -0.42359,-4.24435 -0.26235,-0.36843 -1.01602,-0.70271 -1.60232,-0.71067 -0.61269,-0.008 -1.05333,0.25866 -1.48516,0.89989 l -0.29893,0.44389 v 3.45129 3.4513 h -1.48167 -1.48166 z m 34.71333,-0.001 v -5.24102 l 0.48683,-0.0557 c 0.26776,-0.0307 0.93451,-0.10372 1.48167,-0.16235 l 0.99483,-0.1066 v 0.57736 c 0,0.31755 0.0236,0.57737 0.0523,0.57737 0.0288,0 0.1889,-0.11992 0.35582,-0.26648 0.6933,-0.60873 1.92562,-0.96855 2.95928,-0.86409 0.43336,0.0438 0.52399,0.0788 0.49246,0.18996 -0.0213,0.075 -0.12396,0.70777 -0.22825,1.40627 -0.10429,0.6985 -0.20091,1.28472 -0.21472,1.3027 -0.0138,0.018 -0.22628,-0.0544 -0.47218,-0.16085 -1.04531,-0.45257 -1.89863,-0.17369 -2.57986,0.84311 l -0.36488,0.54461 v 3.32838 3.32839 h -1.48166 -1.48167 z m 12.74233,5.15976 c -1.59489,-0.34495 -2.67966,-1.44783 -2.91802,-2.96674 -0.0475,-0.30269 -0.0866,-1.62666 -0.087,-2.94217 l -6.4e-4,-2.39183 h -0.80434 -0.80433 v -1.18533 -1.18534 h 0.80433 0.80434 v -1.47783 -1.477812 l 0.27516,-0.0455 c 0.15135,-0.0251 0.67522,-0.085 1.16417,-0.13314 0.48895,-0.0482 1.05093,-0.10995 1.24883,-0.13725 l 0.35984,-0.0496 v 1.660602 1.66061 h 0.80433 0.80433 v 1.18534 1.18533 h -0.80433 -0.80433 l 8.4e-4,2.3495 c 0,1.29223 0.0381,2.48502 0.0841,2.65065 0.046,0.16563 0.2008,0.41328 0.34398,0.55033 0.24626,0.23573 0.29907,0.24919 0.97796,0.24919 h 0.71765 l 0.21332,0.71966 c 0.11733,0.39582 0.24899,0.83013 0.29257,0.96514 0.12806,0.39665 0.10138,0.44378 -0.36525,0.64535 -0.49388,0.21333 -1.69846,0.30257 -2.30716,0.17092 z m 4.699,-5.33741 v -5.41866 h 1.48167 1.48167 v 5.41866 5.41867 h -1.48167 -1.48167 z m 8.41491,5.29796 c -1.36172,-0.31018 -2.37627,-1.25934 -2.8439,-2.6606 -0.18063,-0.54126 -0.18905,-0.70782 -0.21798,-4.30952 l -0.0301,-3.7465 h 1.52953 1.52953 v 3.2443 c 0,3.70112 0.0255,3.89322 0.59267,4.46036 0.34966,0.34966 0.96988,0.59267 1.51264,0.59267 0.45436,0 1.00167,-0.31115 1.37251,-0.78029 l 0.33218,-0.42025 v -3.5484 -3.54839 h 1.524 1.524 v 5.41866 5.41867 h -1.51977 -1.51978 l -0.0254,-0.46239 -0.0254,-0.46239 -0.36815,0.24775 c -0.88041,0.59249 -2.22927,0.81538 -3.36661,0.55632 z m 9.36509,-5.12862 c 0,-2.92567 0.0326,-5.24934 0.0738,-5.24934 0.13808,0 2.50756,-0.25466 2.74141,-0.29463 0.231,-0.0395 0.23283,-0.0361 0.23283,0.43408 v 0.47387 l 0.1905,-0.14013 c 1.51791,-1.11659 4.01328,-1.00517 5.3411,0.2385 l 0.23993,0.22472 0.29237,-0.25669 c 0.73887,-0.64875 1.7842,-0.95546 3.24943,-0.95343 1.866,0.003 3.00186,0.63299 3.73388,2.0723 0.48252,0.94872 0.49946,1.12092 0.49946,5.0772 v 3.62288 h -1.47563 -1.47564 l -0.0272,-3.3655 -0.0272,-3.3655 -0.23373,-0.47594 c -0.29366,-0.59797 -0.70097,-0.89283 -1.40451,-1.01676 -0.49209,-0.0867 -0.55099,-0.0787 -0.98364,0.13296 -0.3134,0.15334 -0.55607,0.35574 -0.76066,0.63446 l -0.30046,0.4093 v 3.52349 3.52349 h -1.524 -1.524 v -3.29882 c 0,-3.0931 -0.0106,-3.32709 -0.16958,-3.75206 -0.26985,-0.72124 -0.74667,-1.07394 -1.63009,-1.20575 -0.57514,-0.0858 -1.21803,0.23762 -1.67477,0.84257 l -0.33556,0.44445 v 3.4848 3.48481 h -1.524 -1.524 z m -17.10094,-6.87917 c -0.4404,-0.22504 -0.66287,-0.50402 -0.76525,-0.95965 -0.14209,-0.632422 0.11241,-1.236522 0.68664,-1.629792 0.25283,-0.17315 0.36908,-0.19406 0.939,-0.16896 0.72228,0.0318 0.97507,0.15974 1.32538,0.6707 0.27074,0.3949 0.23794,1.251902 -0.0641,1.676132 -0.41642,0.58481 -1.40665,0.77691 -2.12164,0.41157 z"
         id="path425" /><path
         style="fill:#ffffff;fill-opacity:1;stroke-width:0.0846667"
         d="m 49.201571,107.01316 v -7.202815 l 3.788833,0.0341 c 3.563949,0.0321 3.83105,0.0451 4.500101,0.219605 2.382505,0.62123 3.340556,1.91177 3.340556,4.49991 0,2.07502 -0.685427,3.42702 -2.111131,4.1642 -0.298686,0.15444 -0.543208,0.31093 -0.54338,0.34775 -1.69e-4,0.0368 0.773792,1.16078 1.719921,2.49767 0.946128,1.33689 1.748476,2.47834 1.782996,2.53655 0.04946,0.0834 -0.347085,0.10583 -1.871623,0.10583 h -1.934386 l -1.605444,-2.32484 -1.605443,-2.32484 -1.121833,-0.003 -1.121834,-0.004 v 2.32834 2.32833 h -1.608666 -1.608667 z m 6.544234,-0.2497 c 1.344275,-0.19437 1.837766,-0.77944 1.837766,-2.17881 0,-0.60753 -0.03552,-0.8163 -0.1905,-1.1196 -0.396626,-0.77621 -0.951128,-0.93306 -3.298622,-0.93306 h -1.675545 v 2.159 2.159 l 1.375834,-0.002 c 0.756708,-9.2e-4 1.634688,-0.0391 1.951067,-0.0849 z"
         id="path427"
         sodipodi:nodetypes="ccscsssssscccccccccccssscccccc" /><circle
         style="fill:#ffffff;stroke-width:0.375999;stroke-dasharray:3.00799, 3.00799"
         id="path494"
         cx="54.402199"
         cy="91.557312"
         r="1.858707" /><circle
         style="fill:#ffffff;stroke-width:0.375999;stroke-dasharray:3.00799, 3.00799"
         id="circle496"
         cx="61.86301"
         cy="93.564148"
         r="1.858707" /><circle
         style="fill:#ffffff;stroke-width:0.375999;stroke-dasharray:3.00799, 3.00799"
         id="circle498"
         cx="67.378555"
         cy="99.01947"
         r="1.858707" /><circle
         style="fill:#ffffff;stroke-width:0.375999;stroke-dasharray:3.00799, 3.00799"
         id="circle500"
         cx="69.449921"
         cy="106.6061"
         r="1.858707" /><circle
         style="fill:#ffffff;stroke-width:0.375999;stroke-dasharray:3.00799, 3.00799"
         id="circle502"
         cx="67.451202"
         cy="114.05286"
         r="1.858707" /><circle
         style="fill:#ffffff;stroke-width:0.375999;stroke-dasharray:3.00799, 3.00799"
         id="circle504"
         cx="61.970116"
         cy="119.59989"
         r="1.858707" /><circle
         style="fill:#ffffff;stroke-width:0.375999;stroke-dasharray:3.00799, 3.00799"
         id="circle506"
         cx="54.4548"
         cy="121.58907"
         r="1.858707" /><circle
         style="fill:#ffffff;stroke-width:0.375999;stroke-dasharray:3.00799, 3.00799"
         id="circle508"
         cx="46.940472"
         cy="119.58718"
         r="1.858707" /><circle
         style="fill:#ffffff;stroke-width:0.375999;stroke-dasharray:3.00799, 3.00799"
         id="circle510"
         cx="41.461502"
         cy="114.10694"
         r="1.858707" /><circle
         style="fill:#ffffff;stroke-width:0.375999;stroke-dasharray:3.00799, 3.00799"
         id="circle512"
         cx="39.428825"
         cy="106.6827"
         r="1.858707" /><circle
         style="fill:#ffffff;stroke-width:0.375999;stroke-dasharray:3.00799, 3.00799"
         id="circle514"
         cx="41.413986"
         cy="99.153549"
         r="1.858707" /><circle
         style="fill:#ffffff;stroke-width:0.375999;stroke-dasharray:3.00799, 3.00799"
         id="circle516"
         cx="46.904888"
         cy="93.590492"
         r="1.858707" /></g></g></svg>
