<?xml version="1.0" encoding="UTF-8" standalone="no"?>
<!-- Generator: Adobe Illustrator 16.0.0, SVG Export Plug-In . SVG Version: 6.00 Build 0)  -->

<svg
   version="1.1"
   id="Layer_1"
   x="0px"
   y="0px"
   width="260.52957"
   height="75"
   viewBox="0 0 260.52957 74.999998"
   enable-background="new 0 0 660.521 262.957"
   xml:space="preserve"
   sodipodi:docname="appsilon_dark.svg"
   inkscape:version="1.2.2 (b0a8486541, 2022-12-01)"
   xmlns:inkscape="http://www.inkscape.org/namespaces/inkscape"
   xmlns:sodipodi="http://sodipodi.sourceforge.net/DTD/sodipodi-0.dtd"
   xmlns="http://www.w3.org/2000/svg"
   xmlns:svg="http://www.w3.org/2000/svg"><defs
   id="defs39" /><sodipodi:namedview
   id="namedview37"
   pagecolor="#ffffff"
   bordercolor="#666666"
   borderopacity="1.0"
   inkscape:showpageshadow="2"
   inkscape:pageopacity="0.0"
   inkscape:pagecheckerboard="0"
   inkscape:deskcolor="#d1d1d1"
   showgrid="false"
   inkscape:zoom="1.9832829"
   inkscape:cx="274.04058"
   inkscape:cy="79.413784"
   inkscape:window-width="3840"
   inkscape:window-height="2096"
   inkscape:window-x="0"
   inkscape:window-y="0"
   inkscape:window-maximized="1"
   inkscape:current-layer="Layer_1" />












<g
   id="g283"
   transform="matrix(0.47750275,0,0,0.47750275,-27.43561,-25.281972)"><path
     fill="#ffffff"
     d="m 280.21,143.016 h -22.079 l -4.257,12.77 h -13.566 l 22.345,-59.144 h 15.695 l 20.926,59.144 h -14.719 z m -3.546,-10.553 -7.537,-22.346 -7.449,22.346 z"
     id="path2" /><path
     fill="#ffffff"
     d="m 345.295,115.039 c 3.959,3.754 5.94,10.006 5.94,18.755 0,7.036 -1.772,12.679 -5.319,16.937 -3.547,4.256 -8.396,6.383 -14.542,6.383 -4.493,0 -8.247,-0.795 -11.261,-2.393 v 17.113 h -12.947 v -51.43 c 0,-3.606 1.995,-6.325 5.985,-8.158 3.99,-1.832 9.118,-2.779 15.385,-2.838 7.212,0 12.797,1.878 16.759,5.631 m -9.842,28.42 c 1.713,-2.009 2.569,-5.379 2.569,-10.107 0,-4.257 -0.754,-7.462 -2.26,-9.623 -1.509,-2.157 -4.096,-3.237 -7.76,-3.237 -5.262,0 -7.891,1.007 -7.891,3.016 v 21.104 c 1.063,0.65 2.246,1.123 3.546,1.418 1.299,0.298 2.571,0.443 3.813,0.443 3.608,0 6.267,-1.002 7.983,-3.014"
     id="path4" /><path
     fill="#ffffff"
     d="m 397.701,115.039 c 3.961,3.754 5.94,10.006 5.94,18.755 0,7.036 -1.772,12.679 -5.319,16.937 -3.548,4.256 -8.396,6.383 -14.544,6.383 -4.491,0 -8.244,-0.795 -11.262,-2.393 v 17.113 h -12.944 v -51.43 c 0,-3.606 1.993,-6.325 5.983,-8.158 3.99,-1.832 9.118,-2.779 15.385,-2.838 7.213,0 12.801,1.878 16.761,5.631 m -9.843,28.42 c 1.715,-2.009 2.572,-5.379 2.572,-10.107 0,-4.257 -0.755,-7.462 -2.262,-9.623 -1.508,-2.157 -4.094,-3.237 -7.76,-3.237 -5.262,0 -7.893,1.007 -7.893,3.016 v 21.104 c 1.064,0.65 2.246,1.123 3.547,1.418 1.302,0.298 2.572,0.443 3.813,0.443 3.608,0 6.269,-1.002 7.983,-3.014"
     id="path6" /><path
     fill="#ffffff"
     d="m 419.603,156.271 c -2.127,-0.561 -4.492,-1.375 -7.094,-2.438 v -11.617 c 4.789,3.605 9.813,5.409 15.074,5.409 2.01,0 3.474,-0.34 4.39,-1.021 0.916,-0.678 1.375,-1.61 1.375,-2.793 0,-1.359 -0.739,-2.363 -2.217,-3.016 -1.479,-0.65 -3.844,-1.359 -7.094,-2.129 -3.431,-0.708 -6.251,-2.128 -8.468,-4.255 -2.219,-2.129 -3.324,-5.232 -3.324,-9.312 0,-3.486 0.885,-6.354 2.656,-8.601 1.774,-2.246 4.008,-3.888 6.694,-4.921 2.691,-1.035 5.484,-1.553 8.383,-1.553 3.546,0 6.429,0.311 8.645,0.931 2.217,0.622 4.39,1.583 6.518,2.881 v 10.376 c -3.014,-1.655 -5.352,-2.837 -7.005,-3.548 -1.657,-0.708 -3.577,-1.062 -5.765,-1.062 -2.188,0 -3.813,0.339 -4.875,1.019 -1.066,0.68 -1.597,1.641 -1.597,2.883 0,1.477 0.59,2.557 1.771,3.235 1.184,0.681 3.074,1.374 5.677,2.085 2.955,0.769 5.289,1.521 7.004,2.26 1.716,0.74 3.251,2.01 4.612,3.813 1.36,1.806 2.037,4.332 2.037,7.58 -0.117,5.086 -2.037,8.797 -5.761,11.131 -3.726,2.334 -8.454,3.502 -14.189,3.502 -2.837,0.003 -5.32,-0.276 -7.447,-0.839"
     id="path8" /><path
     fill="#ffffff"
     d="m 457.379,94.6 h 13.655 v 10.197 h -13.655 z m 0.267,16.937 h 13.209 l 0.091,44.247 h -13.3 z"
     id="path10" /><rect
     x="483.62399"
     y="93.980003"
     fill="#ffffff"
     width="13.123"
     height="61.805"
     id="rect12" /><path
     fill="#ffffff"
     d="m 512.532,151.086 c -3.785,-4.021 -5.677,-9.988 -5.677,-17.912 0,-8.277 1.877,-14.306 5.632,-18.091 3.755,-3.782 9.442,-5.674 17.068,-5.674 7.626,0 13.359,1.936 17.203,5.807 3.843,3.873 5.763,9.86 5.763,17.958 0,7.803 -1.98,13.743 -5.94,17.821 -3.96,4.08 -9.635,6.118 -17.024,6.118 -7.569,0 -13.243,-2.008 -17.025,-6.027 m 24.384,-7.938 c 1.655,-2.275 2.483,-5.601 2.483,-9.976 0,-4.789 -0.813,-8.203 -2.438,-10.242 -1.627,-2.039 -4.094,-3.06 -7.405,-3.06 -3.43,0 -5.896,1.021 -7.403,3.06 -1.51,2.039 -2.262,5.453 -2.262,10.242 0,4.554 0.782,7.923 2.351,10.106 1.563,2.188 4.005,3.281 7.314,3.281 3.251,0.004 5.704,-1.135 7.36,-3.411"
     id="path14" /><path
     fill="#ffffff"
     d="m 571.32,111.271 c 4.729,-1.064 8.955,-1.596 12.68,-1.596 6.325,0 11.086,1.242 14.276,3.725 3.19,2.483 4.789,6.561 4.789,12.235 v 30.149 h -13.212 v -27.487 c 0,-5.145 -2.898,-7.715 -8.69,-7.715 -1.3,0 -2.631,0.148 -3.99,0.443 -1.359,0.296 -2.425,0.652 -3.191,1.065 v 33.694 H 560.77 v -41.056 c 2.304,-1.241 5.82,-2.394 10.55,-3.457"
     id="path16" /><g
     opacity="0.7"
     id="g22">
	<g
   id="g20">
		<path
   fill="#ffffff"
   d="M 66.912,60.367 V 202.84 l 123.387,-71.237 z m 38.503,71.23 -33.957,58.82 V 72.782 Z m 2.623,0 z m 1.313,2.27 67.923,0.008 -101.878,58.816 z m -0.002,-4.546 -33.952,-58.806 101.87,58.813 z"
   id="path18" />
	</g>
</g><path
     fill="#ffffff"
     d="m 63.536,54.527 c -5.637,3.256 -7.571,10.493 -4.314,16.133 3.256,5.638 10.49,7.582 16.127,4.325 5.641,-3.256 7.58,-10.493 4.326,-16.133 -3.26,-5.64 -10.499,-7.584 -16.139,-4.325"
     id="path24" /><path
     fill="#ffffff"
     d="m 102.127,121.366 c -5.638,3.251 -7.571,10.491 -4.314,16.131 3.253,5.638 10.487,7.579 16.125,4.328 5.64,-3.257 7.581,-10.499 4.325,-16.136 -3.257,-5.643 -10.496,-7.579 -16.136,-4.323"
     id="path26" /><path
     fill="#ffffff"
     d="m 63.354,187.975 c -5.64,3.256 -7.573,10.496 -4.314,16.139 3.256,5.634 10.487,7.576 16.125,4.32 5.643,-3.254 7.582,-10.494 4.325,-16.131 -3.257,-5.645 -10.496,-7.586 -16.136,-4.328"
     id="path28" /><path
     fill="#ffffff"
     d="m 179.2,121.093 c -5.637,3.253 -7.571,10.493 -4.314,16.133 3.256,5.641 10.49,7.582 16.125,4.324 5.643,-3.256 7.582,-10.493 4.325,-16.133 -3.257,-5.64 -10.496,-7.583 -16.136,-4.324"
     id="path30" /></g>


</svg>
