<?xml version="1.0" encoding="UTF-8" standalone="no"?>
<svg
   width="85.602997"
   height="27.892"
   viewBox="0 0 85.602997 27.892"
   fill="none"
   version="1.1"
   id="svg28"
   sodipodi:docname="appsilon.svg"
   inkscape:version="1.2.2 (b0a8486541, 2022-12-01)"
   xmlns:inkscape="http://www.inkscape.org/namespaces/inkscape"
   xmlns:sodipodi="http://sodipodi.sourceforge.net/DTD/sodipodi-0.dtd"
   xmlns="http://www.w3.org/2000/svg"
   xmlns:svg="http://www.w3.org/2000/svg">
  <defs
     id="defs32" />
  <sodipodi:namedview
     id="namedview30"
     pagecolor="#ffffff"
     bordercolor="#666666"
     borderopacity="1.0"
     inkscape:showpageshadow="2"
     inkscape:pageopacity="0.0"
     inkscape:pagecheckerboard="0"
     inkscape:deskcolor="#d1d1d1"
     showgrid="false"
     inkscape:zoom="14.23913"
     inkscape:cx="41.645803"
     inkscape:cy="11.938932"
     inkscape:window-width="3840"
     inkscape:window-height="2091"
     inkscape:window-x="0"
     inkscape:window-y="0"
     inkscape:window-maximized="1"
     inkscape:current-layer="svg28" />
  <g
     id="g154"
     transform="translate(1.5001984,1.999969)">
    <path
       d="m 33.7236,13.700901 h -3.3427 l -0.6444,1.9423 h -2.0539 l 3.383,-8.9967 h 2.3761 l 3.1681,8.9967 h -2.2284 z m -0.5368,-1.6053 -1.1411,-3.3992 -1.1278,3.3992 z"
       fill="#6e757b"
       id="path2" />
    <path
       d="m 43.5773,9.444901 c 0.5993,0.5711 0.8994,1.5221 0.8994,2.853 0,1.0703 -0.2684,1.9287 -0.8054,2.5764 -0.537,0.6474 -1.271,0.9709 -2.2016,0.9709 -0.6802,0 -1.2486,-0.1211 -1.7049,-0.3641 v 2.6033 h -1.9601 v -7.8234 c 0,-0.5485 0.302,-0.9621 0.9061,-1.2409 0.6041,-0.2787 1.3804,-0.4227 2.3292,-0.4317 1.0919,0 1.9374,0.2857 2.5373,0.8565 z m -1.4901,4.3232 c 0.2594,-0.3056 0.3891,-0.8182 0.3891,-1.5376 0,-0.6476 -0.1142,-1.1351 -0.3422,-1.4637 -0.2284,-0.3281 -0.6201,-0.4924 -1.1748,-0.4924 -0.7966,0 -1.1946,0.1532 -1.1946,0.4588 v 3.2101 c 0.1609,0.0989 0.34,0.1709 0.5368,0.2159 0.1967,0.0452 0.3892,0.0672 0.5773,0.0672 0.5461,2e-4 0.9486,-0.1524 1.2084,-0.4583 z"
       fill="#6e757b"
       id="path4" />
    <path
       d="m 51.5109,9.444901 c 0.5996,0.5711 0.8993,1.5221 0.8993,2.853 0,1.0703 -0.2683,1.9287 -0.8053,2.5764 -0.537,0.6474 -1.2711,0.9709 -2.2018,0.9709 -0.68,0 -1.2482,-0.1211 -1.705,-0.3641 v 2.6033 h -1.9598 v -7.8234 c 0,-0.5485 0.3019,-0.9621 0.9059,-1.2409 0.6041,-0.2787 1.3805,-0.4227 2.3293,-0.4317 1.092,0 1.9378,0.2857 2.5374,0.8565 z m -1.4901,4.3232 c 0.2595,-0.3056 0.3894,-0.8182 0.3894,-1.5376 0,-0.6476 -0.1143,-1.1351 -0.3424,-1.4637 -0.2283,-0.3281 -0.6199,-0.4924 -1.1749,-0.4924 -0.7965,0 -1.1949,0.1532 -1.1949,0.4588 v 3.2101 c 0.1612,0.0989 0.3401,0.1709 0.537,0.2159 0.1971,0.0452 0.3895,0.0672 0.5774,0.0672 0.5461,2e-4 0.9488,-0.1524 1.2084,-0.4583 z"
       fill="#6e757b"
       id="path6" />
    <path
       d="m 54.8267,15.717201 c -0.322,-0.0852 -0.6799,-0.2091 -1.0738,-0.3707 v -1.7671 c 0.725,0.5484 1.4856,0.8228 2.2821,0.8228 0.3043,0 0.5259,-0.0517 0.6646,-0.1553 0.1387,-0.1032 0.2082,-0.2449 0.2082,-0.4249 0,-0.2067 -0.112,-0.3594 -0.3357,-0.4586 -0.2239,-0.099 -0.5819,-0.2067 -1.074,-0.3239 -0.5192,-0.1077 -0.9463,-0.3237 -1.282,-0.6472 -0.3358,-0.3239 -0.5032,-0.7959 -0.5032,-1.4165 0,-0.5303 0.134,-0.9666 0.4023,-1.3084 0.2685,-0.3416 0.6066,-0.5914 1.0134,-0.7485 0.4074,-0.1575 0.8302,-0.2363 1.269,-0.2363 0.5368,0 0.9733,0.0473 1.3088,0.1416 0.3356,0.0947 0.6646,0.2408 0.9868,0.4383 v 1.5783 c -0.4563,-0.2517 -0.8103,-0.4315 -1.0605,-0.5397 -0.2509,-0.1077 -0.5416,-0.1615 -0.8728,-0.1615 -0.3311,0 -0.5773,0.0516 -0.7381,0.155 -0.1614,0.1034 -0.2418,0.2496 -0.2418,0.4385 0,0.2247 0.0894,0.389 0.2682,0.4921 0.1791,0.1036 0.4654,0.209 0.8594,0.3172 0.4474,0.117 0.8008,0.2314 1.0604,0.3438 0.2597,0.1126 0.4922,0.3057 0.6983,0.58 0.2059,0.2746 0.3083,0.659 0.3083,1.153 -0.0177,0.7737 -0.3083,1.3381 -0.8721,1.6931 -0.564,0.355 -1.2799,0.5327 -2.1482,0.5327 -0.4295,3e-4 -0.8054,-0.0421 -1.1276,-0.1278 z"
       fill="#6e757b"
       id="path8" />
    <path
       d="m 60.5459,6.335901 h 2.0673 v 1.5512 h -2.0673 z m 0.0404,2.5764 h 2 l 0.0136,6.7307 h -2.0136 z"
       fill="#6e757b"
       id="path10" />
    <path
       d="m 66.5063,6.241701 h -1.9868 v 9.4015 h 1.9868 z"
       fill="#6e757b"
       id="path12" />
    <path
       d="m 68.8964,14.928101 c -0.573,-0.6116 -0.8593,-1.5195 -0.8593,-2.7247 0,-1.259 0.284,-2.1762 0.8525,-2.7519 0.5685,-0.5753 1.4297,-0.8631 2.5842,-0.8631 1.1545,0 2.0225,0.2945 2.6044,0.8833 0.5819,0.5892 0.8724,1.4999 0.8724,2.7317 0,1.187 -0.2998,2.0906 -0.8993,2.7109 -0.5995,0.6206 -1.4587,0.9306 -2.5774,0.9306 -1.1459,0 -2.0049,-0.3053 -2.5775,-0.9168 z m 3.6917,-1.2075 c 0.2505,-0.346 0.3759,-0.8518 0.3759,-1.5173 0,-0.7285 -0.1231,-1.2478 -0.3691,-1.558 -0.2463,-0.3102 -0.6198,-0.4655 -1.1211,-0.4655 -0.5193,0 -0.8926,0.1553 -1.1209,0.4655 -0.2285,0.3102 -0.3424,0.8295 -0.3424,1.558 0,0.6926 0.1184,1.2052 0.3558,1.5374 0.2368,0.3328 0.6064,0.4991 1.1075,0.4991 0.4922,3e-4 0.8635,-0.173 1.1143,-0.5192 z"
       fill="#6e757b"
       id="path14" />
    <path
       d="m 77.7966,8.872201 c 0.7159,-0.1619 1.3557,-0.2428 1.9197,-0.2428 0.9576,0 1.6784,0.1889 2.1613,0.5666 0.4831,0.3777 0.725,0.9981 0.725,1.8612 v 4.5861 h -2.0002 v -4.1812 c 0,-0.7826 -0.4387,-1.1736 -1.3156,-1.1736 -0.1968,0 -0.3983,0.0225 -0.6041,0.0674 -0.2059,0.045 -0.3671,0.0992 -0.4832,0.162 v 5.1254 h -2.0003 v -6.2453 c 0.349,-0.1887 0.8813,-0.3641 1.5974,-0.5258 z"
       fill="#6e757b"
       id="path16" />
    <path
       d="m 1.4306602,1.128421 v 21.67248 L 20.1109,11.964601 Z m 5.82919,10.83518 -5.14094,8.9475 v -17.8942 z m 0.39711,0 -1.5e-4,-10e-5 h 1.5e-4 z m 0.19878,0.3454 10.2832598,0.0012 -15.4238998,8.947 z m -3e-4,-0.6916 -5.14018,-8.9453 15.4226398,8.9464 z"
       fill="#b3b8ba"
       id="path18" />
    <path
       d="m 0.91997417,0.24046103 c -0.853417,0.49529 -1.146216,1.59614997 -0.65312,2.45403997 0.492944,0.8577 1.58813603,1.1534 2.44155603,0.6579 0.85402,-0.4952 1.14758,-1.5961 0.65494,-2.45403997 -0.49355,-0.85793 -1.5895,-1.15365 -2.44337603,-0.6579 z"
       fill="#0099f9"
       id="path20" />
    <path
       d="m 6.7627802,10.407401 c -0.85357,0.4946 -1.14622,1.5959 -0.65312,2.4538 0.49249,0.8576 1.58769,1.1529 2.44125,0.6584 0.85387,-0.4955 1.14773,-1.5971 0.65479,-2.4546 -0.4931,-0.8584 -1.58905,-1.1529 -2.44292,-0.6576 z"
       fill="#0099f9"
       id="path22" />
    <path
       d="m 0.89286417,20.539701 c -0.8538712,0.4952 -1.146519,1.5966 -0.653121,2.455 0.492944,0.857 1.58768703,1.1524 2.44125703,0.6571 0.85432,-0.495 1.14788,-1.5963 0.65478,-2.4538 -0.49309,-0.8585 -1.58905,-1.1538 -2.44291603,-0.6583 z"
       fill="#0099f9"
       id="path24" />
    <path
       d="m 18.4307,10.365901 c -0.8534,0.4949 -1.1462,1.5962 -0.6531,2.4541 0.4929,0.8581 1.5881,1.1534 2.4412,0.6579 0.8544,-0.4952 1.1479,-1.5961 0.6548,-2.454 -0.4931,-0.858 -1.589,-1.1537 -2.4429,-0.658 z"
       fill="#0099f9"
       id="path26" />
  </g>
</svg>
